<svg width="16.1133" height="=18" viewBox="0 0 67 77" fill="none" xmlns="http://www.w3.org/2000/svg">
<path d="M2 20.5L33 3L65 20.5V56.5L33 74L2 56.5V20.5Z" stroke="#05b427" stroke-width="4"/>
<path d="M17.38 41.668V37.06H22.24C23.296 37.06 24.1 36.808 24.652 36.304C25.228 35.776 25.516 35.068 25.516 34.18C25.516 33.316 25.228 32.62 24.652 32.092C24.1 31.54 23.296 31.264 22.24 31.264H17.38V26.476H23.14C24.868 26.476 26.38 26.8 27.676 27.448C28.996 28.096 30.028 28.984 30.772 30.112C31.516 31.24 31.888 32.56 31.888 34.072C31.888 35.584 31.504 36.916 30.736 38.068C29.992 39.196 28.948 40.084 27.604 40.732C26.26 41.356 24.688 41.668 22.888 41.668H17.38ZM12.268 52V26.476H18.712V52H12.268ZM26.092 52L18.676 41.056L24.472 39.652L33.544 52H26.092ZM44.4191 52.396C42.3791 52.396 40.6031 52.072 39.0911 51.424C37.5791 50.776 36.1871 49.756 34.9151 48.364L38.8751 44.296C39.7391 45.208 40.6511 45.916 41.6111 46.42C42.5951 46.924 43.6871 47.176 44.8871 47.176C45.9431 47.176 46.7591 46.996 47.3351 46.636C47.9111 46.252 48.1991 45.724 48.1991 45.052C48.1991 44.452 47.9831 43.96 47.5511 43.576C47.1191 43.168 46.5551 42.82 45.8591 42.532C45.1871 42.22 44.4311 41.932 43.5911 41.668C42.7751 41.38 41.9471 41.044 41.1071 40.66C40.2911 40.252 39.5351 39.76 38.8391 39.184C38.1671 38.608 37.6151 37.888 37.1831 37.024C36.7751 36.16 36.5711 35.092 36.5711 33.82C36.5711 32.188 36.9431 30.796 37.6871 29.644C38.4551 28.492 39.5111 27.604 40.8551 26.98C42.2231 26.356 43.7951 26.044 45.5711 26.044C47.3471 26.044 48.9911 26.356 50.5031 26.98C52.0151 27.604 53.2631 28.468 54.2471 29.572L50.2511 33.64C49.5071 32.848 48.7511 32.26 47.9831 31.876C47.2151 31.492 46.3871 31.3 45.4991 31.3C44.6351 31.3 43.9511 31.456 43.4471 31.768C42.9431 32.056 42.6911 32.512 42.6911 33.136C42.6911 33.712 42.8951 34.18 43.3031 34.54C43.7351 34.9 44.2991 35.224 44.9951 35.512C45.6911 35.776 46.4471 36.052 47.2631 36.34C48.1031 36.628 48.9311 36.964 49.7471 37.348C50.5871 37.732 51.3431 38.224 52.0151 38.824C52.7111 39.424 53.2751 40.18 53.7071 41.092C54.1391 42.004 54.3551 43.108 54.3551 44.404C54.3551 46.948 53.4791 48.916 51.7271 50.308C49.9991 51.7 47.5631 52.396 44.4191 52.396ZM42.9071 49.048H47.4071V55.636H42.9071V49.048ZM47.4071 28.888H42.9071V22.804H47.4071V28.888Z" fill="#05b427"/>
</svg>
